<svg xmlns="http://www.w3.org/2000/svg" width="63" height="71.8" viewBox="0 0 63 71.8">
  <g id="noun_accounting_2459825" transform="translate(2 -16.8)">
    <g id="Group_2511" data-name="Group 2511" transform="translate(6.667 17.8)">
      <path id="Path_8595" data-name="Path 8595" d="M81.056,68a.666.666,0,0,0-.667.667v3.011A1.123,1.123,0,0,1,79.267,72.8H75.834a.667.667,0,0,0,0,1.333h3.433a2.458,2.458,0,0,0,2.456-2.456V68.667A.666.666,0,0,0,81.056,68Z" transform="translate(-31.722 -34.533)" fill="#eda900" stroke="#eda900" stroke-width="2"/>
      <path id="Path_8596" data-name="Path 8596" d="M69.127,75.2h-.96a.667.667,0,1,0,0,1.333h.96a.667.667,0,1,0,0-1.333Z" transform="translate(-29.167 -36.933)" fill="#eda900" stroke="#eda900" stroke-width="2"/>
      <path id="Path_8597" data-name="Path 8597" d="M39.823,48.829a2.976,2.976,0,0,0-2.962-2.77H25.615a2.976,2.976,0,0,0-2.962,2.77L21.6,64.63a.666.666,0,0,0,.665.711h13.86a4.492,4.492,0,0,0,4.482-4.79ZM38.431,63.007a3.129,3.129,0,0,1-2.307,1H22.977l1.007-15.09a1.639,1.639,0,0,1,1.631-1.525H36.862a1.639,1.639,0,0,1,1.631,1.525l.783,11.722A3.125,3.125,0,0,1,38.431,63.007Z" transform="translate(-13.866 -27.219)" fill="#eda900" stroke="#eda900" stroke-width="2"/>
      <path id="Path_8598" data-name="Path 8598" d="M37.3,53.284a.666.666,0,0,0-.667.667,2.483,2.483,0,0,1-4.965,0,.667.667,0,0,0-1.333,0,3.816,3.816,0,0,0,7.632,0A.666.666,0,0,0,37.3,53.284Z" transform="translate(-16.778 -29.628)" fill="#eda900" stroke="#eda900" stroke-width="2"/>
      <path id="Path_8599" data-name="Path 8599" d="M59.76,23H57.635V21.222A3.426,3.426,0,0,0,54.213,17.8H42.951a3.426,3.426,0,0,0-3.423,3.423V23H13.574A3.577,3.577,0,0,0,10,26.573V57.166a3.574,3.574,0,0,0,3.574,3.567H59.76a3.574,3.574,0,0,0,3.574-3.567V26.573A3.577,3.577,0,0,0,59.76,23Zm0,1.333A2.243,2.243,0,0,1,62,26.573V32.34H57.635V24.333Zm-5.547-5.2A2.092,2.092,0,0,1,56.3,21.222v2.434s0,.006,0,.01v17.9l-1.211.584-1.32-.637-.265-.128h0a.665.665,0,0,0-.579,0l-1.589.766-1.583-.766a.664.664,0,0,0-.58,0l-1.589.766-1.206-.584V21.222a3.471,3.471,0,0,0-.061-.628c-.012-.066-.033-.128-.048-.192A3.364,3.364,0,0,0,46.141,20c-.027-.071-.059-.139-.091-.207a3.32,3.32,0,0,0-.189-.352c-.04-.065-.08-.129-.125-.191-.026-.037-.046-.077-.074-.113h8.551ZM40.862,21.222a2.086,2.086,0,0,1,3.568-1.471,2.047,2.047,0,0,1,.61,1.471V23H40.862ZM11.333,26.573a2.243,2.243,0,0,1,2.24-2.24H45.04V32.34H11.333ZM59.76,59.4H13.574a2.24,2.24,0,0,1-2.24-2.234V33.674H45.04v8.312h0a.666.666,0,0,0,.376.6l1.873.907a.669.669,0,0,0,.58,0l1.589-.767,1.584.767a.669.669,0,0,0,.58,0l1.59-.767,1.583.767a.669.669,0,0,0,.58,0l1.88-.907h0a.666.666,0,0,0,.377-.6V33.674H62V57.166A2.24,2.24,0,0,1,59.76,59.4Z" transform="translate(-10 -17.8)" fill="#eda900" stroke="#eda900" stroke-width="2"/>
      <path id="Path_8600" data-name="Path 8600" d="M17.125,32.605h-.333a.667.667,0,0,0,0,1.333h.333a.667.667,0,0,0,0-1.333Z" transform="translate(-12.042 -22.735)" fill="#eda900" stroke="#eda900" stroke-width="2"/>
      <path id="Path_8601" data-name="Path 8601" d="M23.023,32.605h-.674a.667.667,0,1,0,0,1.333h.674a.667.667,0,0,0,0-1.333Z" transform="translate(-13.894 -22.735)" fill="#eda900" stroke="#eda900" stroke-width="2"/>
      <path id="Path_8602" data-name="Path 8602" d="M28.75,32.605h-.333a.667.667,0,0,0,0,1.333h.333a.667.667,0,0,0,0-1.333Z" transform="translate(-15.917 -22.735)" fill="#eda900" stroke="#eda900" stroke-width="2"/>
      <path id="Path_8603" data-name="Path 8603" d="M69.449,28.026h2.967a.667.667,0,0,0,0-1.333H69.449a.667.667,0,0,0,0,1.333Z" transform="translate(-29.594 -20.764)" fill="#eda900" stroke="#eda900" stroke-width="2"/>
      <path id="Path_8604" data-name="Path 8604" d="M69.449,34.99h2.967a.667.667,0,0,0,0-1.333H69.449a.667.667,0,0,0,0,1.333Z" transform="translate(-29.594 -23.085)" fill="#eda900" stroke="#eda900" stroke-width="2"/>
      <path id="Path_8605" data-name="Path 8605" d="M69.449,41.954h2.967a.667.667,0,0,0,0-1.333H69.449a.667.667,0,0,0,0,1.333Z" transform="translate(-29.594 -25.407)" fill="#eda900" stroke="#eda900" stroke-width="2"/>
    </g>
    <text id="Created_by_Mat_fine" data-name="Created by Mat fine" transform="translate(0 82.267)" fill="#eda900" stroke="#eda900" stroke-width="2" font-size="3" font-family="Arial-BoldMT, Arial" font-weight="700"><tspan x="0" y="0">Created by Mat fine</tspan></text>
    <text id="from_the_Noun_Project" data-name="from the Noun Project" transform="translate(0 85.6)" fill="#eda900" stroke="#eda900" stroke-width="2" font-size="3" font-family="Arial-BoldMT, Arial" font-weight="700"><tspan x="0" y="0">from the Noun Project</tspan></text>
  </g>
</svg>
