<svg xmlns="http://www.w3.org/2000/svg" width="63" height="74.897" viewBox="0 0 63 74.897">
  <g id="noun_till_1368308" transform="translate(2 -9)">
    <path id="Path_8582" data-name="Path 8582" d="M63.382,48.49a.666.666,0,0,0-.666-.666H58.449V24.913a6.637,6.637,0,0,0-6.629-6.63H29.284V16.011h3.744A2.578,2.578,0,0,0,35.6,13.436v-.861A2.578,2.578,0,0,0,33.027,10H24.453a2.578,2.578,0,0,0-2.575,2.575v.861a2.578,2.578,0,0,0,2.575,2.575h3.5v2.273h-6.27a6.637,6.637,0,0,0-6.629,6.63V47.825H10.785a.666.666,0,0,0-.666.666v14.1a.666.666,0,0,0,.666.666H62.717a.666.666,0,0,0,.666-.666V48.49ZM23.21,13.436v-.861a1.245,1.245,0,0,1,1.244-1.244h8.574a1.245,1.245,0,0,1,1.244,1.244v.861a1.245,1.245,0,0,1-1.244,1.244H24.453A1.245,1.245,0,0,1,23.21,13.436ZM16.384,24.913a5.3,5.3,0,0,1,5.3-5.3H51.819a5.3,5.3,0,0,1,5.3,5.3V47.825H16.384ZM62.051,61.924H11.45V49.156h50.6V61.924Z" transform="translate(-3.383)" fill="#eda900" stroke="#eda900" stroke-width="2"/>
    <path id="Path_8583" data-name="Path 8583" d="M51.5,77.41H44.64a.666.666,0,0,0,0,1.331H51.5a.666.666,0,1,0,0-1.331Z" transform="translate(-14.701 -22.536)" fill="#eda900" stroke="#eda900" stroke-width="2"/>
    <path id="Path_8584" data-name="Path 8584" d="M27.463,38.9H41.041a.666.666,0,0,0,.666-.666V31.308a.666.666,0,0,0-.666-.666H27.463a.666.666,0,0,0-.666.666V38.23A.666.666,0,0,0,27.463,38.9Zm.666-6.922H40.375v5.59H28.128Z" transform="translate(-8.958 -6.901)" fill="#eda900" stroke="#eda900" stroke-width="2"/>
    <path id="Path_8585" data-name="Path 8585" d="M30.2,49.623H27.463a.666.666,0,1,0,0,1.331H30.2a.666.666,0,0,0,0-1.331Z" transform="translate(-8.958 -13.246)" fill="#eda900" stroke="#eda900" stroke-width="2"/>
    <path id="Path_8586" data-name="Path 8586" d="M30.2,58.13H27.463a.666.666,0,0,0,0,1.331H30.2a.666.666,0,0,0,0-1.331Z" transform="translate(-8.958 -16.09)" fill="#eda900" stroke="#eda900" stroke-width="2"/>
    <path id="Path_8587" data-name="Path 8587" d="M40.5,49.623H37.758a.666.666,0,1,0,0,1.331H40.5a.666.666,0,1,0,0-1.331Z" transform="translate(-12.4 -13.246)" fill="#eda900" stroke="#eda900" stroke-width="2"/>
    <path id="Path_8588" data-name="Path 8588" d="M40.5,58.13H37.758a.666.666,0,1,0,0,1.331H40.5a.666.666,0,1,0,0-1.331Z" transform="translate(-12.4 -16.09)" fill="#eda900" stroke="#eda900" stroke-width="2"/>
    <path id="Path_8589" data-name="Path 8589" d="M50.791,49.623H48.053a.666.666,0,0,0,0,1.331h2.738a.666.666,0,1,0,0-1.331Z" transform="translate(-15.842 -13.246)" fill="#eda900" stroke="#eda900" stroke-width="2"/>
    <path id="Path_8590" data-name="Path 8590" d="M50.791,58.13H48.053a.666.666,0,0,0,0,1.331h2.738a.666.666,0,1,0,0-1.331Z" transform="translate(-15.842 -16.09)" fill="#eda900" stroke="#eda900" stroke-width="2"/>
    <path id="Path_8591" data-name="Path 8591" d="M61.085,49.623H58.347a.666.666,0,1,0,0,1.331h2.739a.666.666,0,1,0,0-1.331Z" transform="translate(-19.283 -13.246)" fill="#eda900" stroke="#eda900" stroke-width="2"/>
    <path id="Path_8592" data-name="Path 8592" d="M61.085,58.13H58.347a.666.666,0,1,0,0,1.331h2.739a.666.666,0,1,0,0-1.331Z" transform="translate(-19.283 -16.09)" fill="#eda900" stroke="#eda900" stroke-width="2"/>
    <path id="Path_8593" data-name="Path 8593" d="M71.38,49.623H68.642a.666.666,0,0,0,0,1.331H71.38a.666.666,0,0,0,0-1.331Z" transform="translate(-22.725 -13.246)" fill="#eda900" stroke="#eda900" stroke-width="2"/>
    <path id="Path_8594" data-name="Path 8594" d="M71.38,58.13H68.642a.666.666,0,0,0,0,1.331H71.38a.666.666,0,0,0,0-1.331Z" transform="translate(-22.725 -16.09)" fill="#eda900" stroke="#eda900" stroke-width="2"/>
    <text id="Created_by_Made" data-name="Created by Made" transform="translate(0 77.569)" fill="#eda900" stroke="#eda900" stroke-width="2" font-size="1" font-family="Arial-BoldMT, Arial" font-weight="700"><tspan x="0" y="0">Created by Made</tspan></text>
    <text id="from_the_Noun_Project" data-name="from the Noun Project" transform="translate(0 80.897)" fill="#eda900" stroke="#eda900" stroke-width="2" font-size="1" font-family="Arial-BoldMT, Arial" font-weight="700"><tspan x="0" y="0">from the Noun Project</tspan></text>
  </g>
</svg>
