<svg xmlns="http://www.w3.org/2000/svg" width="190.938" height="179.752" viewBox="0 0 190.938 179.752">
  <path id="Icon_awesome-chart-pie" data-name="Icon awesome-chart-pie" d="M184.266,100.547H101.422l31.822,31.822,23.35,23.35a5.6,5.6,0,0,0,7.747.237,83.615,83.615,0,0,0,25.532-49.178,5.6,5.6,0,0,0-5.607-6.232Zm-5.527-22.623A83.989,83.989,0,0,0,100.828.013a5.618,5.618,0,0,0-5.865,5.656v78.12h78.124a5.615,5.615,0,0,0,5.652-5.865ZM78.2,100.547V17.7A5.6,5.6,0,0,0,71.976,12.1,83.729,83.729,0,0,0,.049,97.883c1.522,44.737,40.041,81.423,84.8,80.861a83.139,83.139,0,0,0,47.223-15.372,5.547,5.547,0,0,0,.548-8.407Z" transform="translate(190.432 179.251) rotate(180)" fill="none" stroke="#000" stroke-width="1"/>
</svg>
