<svg xmlns="http://www.w3.org/2000/svg" width="17.147" height="24" viewBox="0 0 17.147 24">
  <path id="Icon_ionic-md-keypad" data-name="Icon ionic-md-keypad" d="M15.323,21.888a2.181,2.181,0,1,0,2.17,2.181A2.181,2.181,0,0,0,15.323,21.888ZM8.92,2.25a2.181,2.181,0,1,0,2.17,2.181A2.181,2.181,0,0,0,8.92,2.25Zm0,6.548a2.181,2.181,0,1,0,2.17,2.181A2.181,2.181,0,0,0,8.92,8.8Zm0,6.548a2.181,2.181,0,1,0,2.17,2.181A2.181,2.181,0,0,0,8.92,15.346ZM21.727,6.617a2.184,2.184,0,1,0-2.17-2.186A2.181,2.181,0,0,0,21.727,6.617Zm-6.4,8.729a2.181,2.181,0,1,0,2.17,2.181A2.181,2.181,0,0,0,15.323,15.346Zm6.4,0a2.181,2.181,0,1,0,2.17,2.181A2.181,2.181,0,0,0,21.727,15.346Zm0-6.548a2.181,2.181,0,1,0,2.17,2.181A2.181,2.181,0,0,0,21.727,8.8Zm-6.4,0a2.181,2.181,0,1,0,2.17,2.181A2.181,2.181,0,0,0,15.323,8.8Zm0-6.548a2.181,2.181,0,1,0,2.17,2.181A2.181,2.181,0,0,0,15.323,2.25Z" transform="translate(-6.75 -2.25)" fill="rgba(0,0,0,0.5)"/>
</svg>
