<svg xmlns="http://www.w3.org/2000/svg" width="52" height="52" viewBox="0 0 52 52">
  <path id="Icon_awesome-user-circle" data-name="Icon awesome-user-circle" d="M26,.563a26,26,0,1,0,26,26A26,26,0,0,0,26,.563Zm0,10.065a9.226,9.226,0,1,1-9.226,9.226A9.226,9.226,0,0,1,26,10.627Zm0,36.065a20.09,20.09,0,0,1-15.359-7.15,11.689,11.689,0,0,1,10.327-6.269,2.565,2.565,0,0,1,.744.115A13.881,13.881,0,0,0,26,34.111a13.828,13.828,0,0,0,4.288-.723,2.565,2.565,0,0,1,.744-.115,11.689,11.689,0,0,1,10.327,6.269A20.09,20.09,0,0,1,26,46.692Z" transform="translate(0 -0.563)" fill="#0095c8"/>
</svg>
